<?xml version="1.0" encoding="UTF-8" standalone="no"?>
<!-- Created with Inkscape (http://www.inkscape.org/) -->

<svg
   xmlns:dc="http://purl.org/dc/elements/1.1/"
   xmlns:cc="http://creativecommons.org/ns#"
   xmlns:rdf="http://www.w3.org/1999/02/22-rdf-syntax-ns#"
   xmlns:svg="http://www.w3.org/2000/svg"
   xmlns="http://www.w3.org/2000/svg"
   xmlns:sodipodi="http://sodipodi.sourceforge.net/DTD/sodipodi-0.dtd"
   xmlns:inkscape="http://www.inkscape.org/namespaces/inkscape"
   width="16px"
   height="16px"
   viewBox="0 0 16 16"
   version="1.1"
   id="SVGRoot"
   inkscape:version="0.92.3 (2405546, 2018-03-11)"
   sodipodi:docname="logo.svg">
  <sodipodi:namedview
     id="base"
     pagecolor="#ffffff"
     bordercolor="#666666"
     borderopacity="1.0"
     inkscape:pageopacity="0.0"
     inkscape:pageshadow="2"
     inkscape:zoom="17.050493"
     inkscape:cx="-3.6808841"
     inkscape:cy="6.6161738"
     inkscape:document-units="px"
     inkscape:current-layer="layer1"
     showgrid="false"
     inkscape:window-width="1600"
     inkscape:window-height="847"
     inkscape:window-x="1352"
     inkscape:window-y="-8"
     inkscape:window-maximized="1"
     inkscape:grid-bbox="true"
     inkscape:snap-page="true"
     showguides="true"
     inkscape:guide-bbox="true"
     inkscape:snap-bbox="true"
     inkscape:snap-bbox-midpoints="true" />
  <defs
     id="defs962" />
  <metadata
     id="metadata965">
    <rdf:RDF>
      <cc:Work
         rdf:about="">
        <dc:format>image/svg+xml</dc:format>
        <dc:type
           rdf:resource="http://purl.org/dc/dcmitype/StillImage" />
        <dc:title />
      </cc:Work>
    </rdf:RDF>
  </metadata>
  <g
     id="layer1"
     inkscape:groupmode="layer"
     inkscape:label="Layer 1">
    <g
       id="g1541"
       transform="matrix(0.31617487,0,0,0.31617487,5.2927527,3.7118783)"
       inkscape:export-xdpi="95.9804"
       inkscape:export-ydpi="95.9804"
       style="fill:#da2020;fill-opacity:1">
      <path
         inkscape:connector-curvature="0"
         d="m 33.864954,23.202332 c 0,3.699581 0.006,7.399514 -0.0021,11.099447 -0.0053,2.607734 -1.2065,4.044597 -3.340453,4.025195 -2.041172,-0.0187 -3.232855,-1.459795 -3.235678,-3.963106 -0.0088,-6.401505 0,-12.802658 -0.0042,-19.204163 C 27.275418,5.067086 20.584634,-2.3197282 10.560454,-3.0700865 8.625115,-3.2147254 6.60511,-2.7610532 4.6803536,-2.3306643 3.5260646,-2.072431 3.1394206,-2.3973393 2.7728846,-3.3861754 2.3721286,-4.4674393 1.8997596,-5.5684587 1.2252486,-6.4899142 0.4755956,-7.5136753 0.6085926,-7.906317 1.7847536,-8.3162447 8.647693,-10.708784 15.367404,-10.330606 21.63944,-6.7269809 29.626681,-2.1376949 33.81627,4.887522 33.862837,14.21673 c 0.01482,2.995436 0.0025,5.990519 0.0021,8.985602"
         style="fill:#da2020;fill-opacity:1;fill-rule:nonzero;stroke:none;stroke-width:0.35277778"
         id="path835-5" />
      <path
         inkscape:connector-curvature="0"
         d="m -6.7950869,29.592302 c 0.1104195,-1.016352 -0.09525,-1.671108 -1.3430249,-1.684161 -1.0929056,-0.01199 -1.609725,0.294922 -1.5927917,1.451681 0.014111,0.975783 0.08502,1.674636 1.3765389,1.630186 1.0301111,-0.03528 1.7342552,-0.173214 1.5592777,-1.397706 M -13.742692,17.021066 c 0,1.641475 -0.04904,3.284714 0.0127,4.92372 0.07161,1.887361 1.109839,2.906536 3.004255,2.965097 1.7610668,0.05468 3.5277779,0.08431 5.2867276,0.0039 2.248253,-0.102659 3.962047,-3.412773 2.721681,-5.22852 -0.171097,-0.250472 -0.711553,-0.332316 -1.08585,-0.344664 -1.350081,-0.04233 -2.731911,0.142523 -4.0414223,-0.09349 -0.6625167,-0.119239 -1.1962695,-0.954969 -1.7882306,-1.466497 0.59055,-0.518231 1.114425,-1.336675 1.7871722,-1.486958 1.1175997,-0.249414 2.3343307,-0.124531 3.5034357,-0.05539 1.191331,0.07055 1.828448,-0.160161 1.803048,-1.6002 -0.02258,-1.300339 -0.365831,-1.804459 -1.701095,-1.683809 -1.165578,0.105128 -2.3876,0.197909 -3.5087276,-0.04868 -0.6910916,-0.152061 -1.2393083,-0.951808 -1.8520833,-1.460514 0.6145389,-0.502003 1.1687528,-1.300339 1.8566695,-1.439686 1.1793364,-0.239183 2.4570974,-0.184503 3.6667724,-0.03528 1.370541,0.168983 1.550811,-0.464253 1.566333,-1.595964 0.01693,-1.202973 -0.209197,-1.896181 -1.634067,-1.759303 -1.164166,0.112183 -2.384777,0.187678 -3.5097857,-0.05115 C -8.3455452,6.417272 -8.9032868,5.647511 -9.5206479,5.15715 -8.9780757,4.644564 -8.4975924,3.803189 -7.8809368,3.687478 -6.5770704,3.44265 -5.1970034,3.494156 -3.8589174,3.583056 c 0.984603,0.06526 1.338792,-0.202848 1.42875,-1.210734 0.260703,-2.92523298 -0.79622,-4.1733606 -3.721453,-4.1938218 -1.4100526,-0.00988 -2.8208109,-0.032456 -4.2301576,7.056e-4 -2.054931,0.048683 -3.080456,1.11442522 -3.131961,3.1919332 -0.0074,0.293511 -0.01199,0.588081 7.05e-4,0.881239 0.04904,1.160639 -0.144992,2.251075 -1.589969,2.206625 -1.281995,-0.039511 -1.525059,-1.095022 -1.563864,-2.159706 -0.160161,-4.4132495 2.356203,-7.2118356 6.002161,-7.080955 1.6534692,0.059619 1.2132025,-1.2050889 1.3225636,-2.1156083 0.1255889,-1.0406944 -0.4265083,-1.28905 -1.3631336,-1.2872861 -1.2319,0.00212 -2.934052,0.3686528 -2.781652,-1.6548805 0.140405,-1.8693691 1.808339,-1.2618861 2.932641,-1.2908141 2.1717002,-0.05539 4.3462226,0.01094 6.5193336,0.02187 1.061155,0.0056 1.89865,0.293159 1.847144,1.5702143 -0.04763,1.1775722 -0.85725,1.3814778 -1.840089,1.3878278 -1.169458,0.00741 -2.553758,-0.4109861 -2.431697,1.6947444 0.06844,1.1800416 0.324203,1.6157221 1.55575,1.7085027 3.533422,0.2667 5.522383,2.4750888 5.512506,6.0088638 -0.01905,6.69678 -0.09384,13.393208 -0.109362,20.089988 -0.0064,2.674056 -0.900641,4.760736 -3.371849,6.094942 -0.434623,0.23495 -0.741892,1.119717 -0.728839,1.695803 0.04763,2.098322 -0.404284,3.772252 -2.511072,4.795661 -0.464962,0.22613 -0.6533449,1.381477 -0.6586366,2.111727 -0.00917,1.218142 -0.28575,2.263775 -1.6203083,2.222148 -1.3567833,-0.04233 -1.6358307,-1.239309 -1.4802555,-2.351617 0.1675694,-1.196622 -0.072672,-1.888067 -1.2650612,-2.475442 -1.539522,-0.758472 -1.856669,-2.3114 -1.692275,-3.937352 0.112536,-1.117248 -0.08043,-1.887361 -1.260122,-2.538942 -1.787878,-0.987072 -2.695928,-2.675819 -2.654653,-4.834819 0.06456,-3.347861 0.05821,-6.697839 0.03246,-10.046406 -0.0092,-1.157463 0.359128,-2.115961 1.564216,-2.1209 1.218495,-0.0049 1.404762,1.00965 1.404409,2.124428 -3.53e-4,1.643239 0,3.286831 0,4.930069 z"
         style="fill:#da2020;fill-opacity:1;fill-rule:nonzero;stroke:none;stroke-width:0.35277778"
         id="path839-4" />
    </g>
  </g>
</svg>
